<svg width="151" height="16" viewBox="0 0 151 16" fill="none" xmlns="http://www.w3.org/2000/svg">
<path d="M11.534 0.454545V15H9.82944L1.9033 3.57955H1.76125V15H-0.000110865V0.454545H1.70443L9.65898 11.9034H9.80103V0.454545H11.534ZM19.263 15.2273C18.2782 15.2273 17.4141 14.9929 16.6707 14.5241C15.9321 14.0554 15.3544 13.3996 14.9377 12.5568C14.5258 11.714 14.3198 10.7292 14.3198 9.60227C14.3198 8.46591 14.5258 7.47396 14.9377 6.62642C15.3544 5.77888 15.9321 5.12074 16.6707 4.65199C17.4141 4.18324 18.2782 3.94886 19.263 3.94886C20.2479 3.94886 21.1096 4.18324 21.8483 4.65199C22.5916 5.12074 23.1693 5.77888 23.5812 6.62642C23.9979 7.47396 24.2062 8.46591 24.2062 9.60227C24.2062 10.7292 23.9979 11.714 23.5812 12.5568C23.1693 13.3996 22.5916 14.0554 21.8483 14.5241C21.1096 14.9929 20.2479 15.2273 19.263 15.2273ZM19.263 13.7216C20.0111 13.7216 20.6267 13.5298 21.1096 13.1463C21.5926 12.7628 21.9501 12.2585 22.1821 11.6335C22.4141 11.0085 22.5301 10.3314 22.5301 9.60227C22.5301 8.87311 22.4141 8.19366 22.1821 7.56392C21.9501 6.93419 21.5926 6.42519 21.1096 6.03693C20.6267 5.64867 20.0111 5.45455 19.263 5.45455C18.5149 5.45455 17.8994 5.64867 17.4164 6.03693C16.9335 6.42519 16.576 6.93419 16.344 7.56392C16.112 8.19366 15.996 8.87311 15.996 9.60227C15.996 10.3314 16.112 11.0085 16.344 11.6335C16.576 12.2585 16.9335 12.7628 17.4164 13.1463C17.8994 13.5298 18.5149 13.7216 19.263 13.7216ZM31.5091 4.09091V5.51136H25.8557V4.09091H31.5091ZM27.5034 1.47727H29.1796V11.875C29.1796 12.3485 29.2482 12.7036 29.3855 12.9403C29.5276 13.1723 29.7075 13.3286 29.9253 13.4091C30.1479 13.4848 30.3822 13.5227 30.6284 13.5227C30.8131 13.5227 30.9646 13.5133 31.083 13.4943C31.2014 13.4706 31.2961 13.4517 31.3671 13.4375L31.708 14.9432C31.5943 14.9858 31.4357 15.0284 31.2321 15.071C31.0285 15.1184 30.7705 15.142 30.458 15.142C29.9845 15.142 29.5205 15.0402 29.0659 14.8366C28.6161 14.633 28.2421 14.3229 27.9438 13.9062C27.6502 13.4896 27.5034 12.964 27.5034 12.3295V1.47727ZM42.8657 15.2557C42.1744 15.2557 41.547 15.1255 40.9836 14.8651C40.4201 14.5999 39.9727 14.2188 39.6412 13.7216C39.3098 13.2197 39.1441 12.6136 39.1441 11.9034C39.1441 11.2784 39.2672 10.7718 39.5134 10.3835C39.7596 9.99053 40.0887 9.68276 40.5006 9.46023C40.9125 9.23769 41.3671 9.07197 41.8642 8.96307C42.3661 8.84943 42.8704 8.75947 43.377 8.69318C44.0399 8.60795 44.5773 8.54403 44.9892 8.50142C45.4059 8.45407 45.7089 8.37595 45.8983 8.26705C46.0925 8.15814 46.1895 7.96875 46.1895 7.69886V7.64205C46.1895 6.94129 45.9978 6.39678 45.6142 6.00852C45.2354 5.62027 44.6602 5.42614 43.8884 5.42614C43.0882 5.42614 42.4608 5.60133 42.0063 5.9517C41.5517 6.30208 41.2321 6.67614 41.0475 7.07386L39.4566 6.50568C39.7407 5.8428 40.1194 5.3267 40.5929 4.95739C41.0711 4.58333 41.592 4.32292 42.1554 4.17614C42.7236 4.02462 43.2823 3.94886 43.8316 3.94886C44.1819 3.94886 44.5844 3.99148 45.039 4.0767C45.4982 4.1572 45.9409 4.32528 46.3671 4.58097C46.7979 4.83665 47.1554 5.22254 47.4395 5.73864C47.7236 6.25473 47.8657 6.94602 47.8657 7.8125V15H46.1895V13.5227H46.1043C45.9907 13.7595 45.8013 14.0128 45.5361 14.2827C45.271 14.5526 44.9182 14.7822 44.4779 14.9716C44.0375 15.161 43.5001 15.2557 42.8657 15.2557ZM43.1213 13.75C43.7842 13.75 44.3429 13.6198 44.7975 13.3594C45.2568 13.099 45.6024 12.7628 45.8344 12.3509C46.0711 11.9389 46.1895 11.5057 46.1895 11.0511V9.51705C46.1185 9.60227 45.9622 9.6804 45.7208 9.75142C45.484 9.81771 45.2094 9.87689 44.8969 9.92898C44.5891 9.97633 44.2885 10.0189 43.9949 10.0568C43.7061 10.09 43.4717 10.1184 43.2918 10.142C42.8562 10.1989 42.449 10.2912 42.0702 10.419C41.6961 10.5421 41.3931 10.7292 41.1611 10.9801C40.9338 11.2263 40.8202 11.5625 40.8202 11.9886C40.8202 12.571 41.0356 13.0114 41.4665 13.3097C41.9021 13.6032 42.4537 13.75 43.1213 13.75ZM62.3454 0.454545H64.1068V10.8523C64.1068 11.7803 63.9363 12.5687 63.5954 13.2173C63.2545 13.866 62.7739 14.3584 62.1537 14.6946C61.5334 15.0308 60.8019 15.1989 59.9591 15.1989C59.1636 15.1989 58.4557 15.0545 57.8355 14.7656C57.2152 14.4721 56.7275 14.0554 56.3724 13.5156C56.0173 12.9759 55.8397 12.3343 55.8397 11.5909H57.5727C57.5727 12.0028 57.6745 12.3627 57.8781 12.6705C58.0864 12.9735 58.3705 13.2102 58.7304 13.3807C59.0902 13.5511 59.4998 13.6364 59.9591 13.6364C60.4657 13.6364 60.8966 13.5298 61.2517 13.3168C61.6068 13.1037 61.8767 12.7912 62.0613 12.3793C62.2507 11.9626 62.3454 11.4536 62.3454 10.8523V0.454545ZM71.8412 15.2273C70.8563 15.2273 69.9922 14.9929 69.2488 14.5241C68.5102 14.0554 67.9325 13.3996 67.5159 12.5568C67.1039 11.714 66.898 10.7292 66.898 9.60227C66.898 8.46591 67.1039 7.47396 67.5159 6.62642C67.9325 5.77888 68.5102 5.12074 69.2488 4.65199C69.9922 4.18324 70.8563 3.94886 71.8412 3.94886C72.826 3.94886 73.6877 4.18324 74.4264 4.65199C75.1698 5.12074 75.7474 5.77888 76.1593 6.62642C76.576 7.47396 76.7843 8.46591 76.7843 9.60227C76.7843 10.7292 76.576 11.714 76.1593 12.5568C75.7474 13.3996 75.1698 14.0554 74.4264 14.5241C73.6877 14.9929 72.826 15.2273 71.8412 15.2273ZM71.8412 13.7216C72.5893 13.7216 73.2048 13.5298 73.6877 13.1463C74.1707 12.7628 74.5282 12.2585 74.7602 11.6335C74.9922 11.0085 75.1082 10.3314 75.1082 9.60227C75.1082 8.87311 74.9922 8.19366 74.7602 7.56392C74.5282 6.93419 74.1707 6.42519 73.6877 6.03693C73.2048 5.64867 72.5893 5.45455 71.8412 5.45455C71.093 5.45455 70.4775 5.64867 69.9946 6.03693C69.5116 6.42519 69.1541 6.93419 68.9221 7.56392C68.6901 8.19366 68.5741 8.87311 68.5741 9.60227C68.5741 10.3314 68.6901 11.0085 68.9221 11.6335C69.1541 12.2585 69.5116 12.7628 69.9946 13.1463C70.4775 13.5298 71.093 13.7216 71.8412 13.7216ZM79.3429 15V4.09091H81.0191V15H79.3429ZM80.1952 2.27273C79.8685 2.27273 79.5868 2.16146 79.35 1.93892C79.118 1.71638 79.002 1.44886 79.002 1.13636C79.002 0.823864 79.118 0.556345 79.35 0.333806C79.5868 0.111269 79.8685 0 80.1952 0C80.5219 0 80.8013 0.111269 81.0333 0.333806C81.27 0.556345 81.3884 0.823864 81.3884 1.13636C81.3884 1.44886 81.27 1.71638 81.0333 1.93892C80.8013 2.16146 80.5219 2.27273 80.1952 2.27273ZM85.7652 8.4375V15H84.089V4.09091H85.7083V5.79545H85.8504C86.1061 5.24148 86.4943 4.7964 87.0152 4.46023C87.536 4.11932 88.2083 3.94886 89.0322 3.94886C89.7708 3.94886 90.4171 4.10038 90.9711 4.40341C91.5251 4.7017 91.956 5.15625 92.2637 5.76705C92.5715 6.37311 92.7254 7.14015 92.7254 8.06818V15H91.0493V8.18182C91.0493 7.32481 90.8267 6.6572 90.3816 6.17898C89.9366 5.69602 89.3258 5.45455 88.5492 5.45455C88.0142 5.45455 87.536 5.57055 87.1146 5.80256C86.6979 6.03456 86.3689 6.37311 86.1274 6.81818C85.8859 7.26326 85.7652 7.80303 85.7652 8.4375ZM108.288 10.5398V4.09091H109.964V15H108.288V13.1534H108.175C107.919 13.7074 107.521 14.1785 106.981 14.5668C106.442 14.9503 105.76 15.142 104.936 15.142C104.254 15.142 103.648 14.9929 103.118 14.6946C102.587 14.3916 102.171 13.937 101.868 13.331C101.565 12.7202 101.413 11.9508 101.413 11.0227V4.09091H103.089V10.9091C103.089 11.7045 103.312 12.339 103.757 12.8125C104.207 13.286 104.78 13.5227 105.476 13.5227C105.892 13.5227 106.316 13.4162 106.747 13.2031C107.183 12.9901 107.547 12.6634 107.841 12.223C108.139 11.7827 108.288 11.2216 108.288 10.5398ZM120.762 6.53409L119.256 6.96023C119.161 6.70928 119.022 6.46544 118.837 6.22869C118.657 5.98722 118.411 5.78835 118.098 5.6321C117.786 5.47585 117.386 5.39773 116.898 5.39773C116.23 5.39773 115.674 5.55161 115.229 5.85938C114.789 6.16241 114.568 6.5483 114.568 7.01705C114.568 7.43371 114.72 7.76278 115.023 8.00426C115.326 8.24574 115.799 8.44697 116.443 8.60795L118.063 9.00568C119.038 9.24242 119.765 9.60464 120.243 10.0923C120.721 10.5753 120.96 11.1979 120.96 11.9602C120.96 12.5852 120.781 13.1439 120.421 13.6364C120.066 14.1288 119.568 14.517 118.929 14.8011C118.29 15.0852 117.547 15.2273 116.699 15.2273C115.586 15.2273 114.665 14.9858 113.936 14.5028C113.207 14.0199 112.746 13.3144 112.551 12.3864L114.142 11.9886C114.294 12.5758 114.58 13.0161 115.002 13.3097C115.428 13.6032 115.984 13.75 116.671 13.75C117.452 13.75 118.072 13.5843 118.531 13.2528C118.996 12.9167 119.228 12.5142 119.228 12.0455C119.228 11.6667 119.095 11.3494 118.83 11.0938C118.565 10.8333 118.157 10.6392 117.608 10.5114L115.79 10.0852C114.791 9.84848 114.057 9.48153 113.588 8.98438C113.124 8.48248 112.892 7.85511 112.892 7.10227C112.892 6.48674 113.065 5.94223 113.411 5.46875C113.761 4.99527 114.237 4.62358 114.838 4.35369C115.444 4.08381 116.131 3.94886 116.898 3.94886C117.978 3.94886 118.825 4.18561 119.441 4.65909C120.061 5.13258 120.501 5.75758 120.762 6.53409ZM128.057 15.2273C127.006 15.2273 126.1 14.9953 125.337 14.5312C124.58 14.0625 123.995 13.4091 123.583 12.571C123.176 11.7282 122.972 10.7481 122.972 9.63068C122.972 8.51326 123.176 7.52841 123.583 6.67614C123.995 5.81913 124.568 5.15152 125.302 4.6733C126.04 4.19034 126.902 3.94886 127.887 3.94886C128.455 3.94886 129.016 4.04356 129.57 4.23295C130.124 4.42235 130.628 4.73011 131.083 5.15625C131.538 5.57765 131.9 6.13636 132.17 6.83239C132.44 7.52841 132.574 8.38542 132.574 9.40341V10.1136H124.165V8.66477H130.87C130.87 8.04924 130.747 7.5 130.501 7.01705C130.259 6.53409 129.913 6.15294 129.464 5.87358C129.019 5.59422 128.493 5.45455 127.887 5.45455C127.219 5.45455 126.642 5.62026 126.154 5.9517C125.671 6.27841 125.299 6.70455 125.039 7.23011C124.779 7.75568 124.648 8.31913 124.648 8.92045V9.88636C124.648 10.7102 124.79 11.4086 125.074 11.9815C125.363 12.5497 125.763 12.983 126.275 13.2812C126.786 13.5748 127.38 13.7216 128.057 13.7216C128.498 13.7216 128.895 13.66 129.251 13.5369C129.61 13.4091 129.921 13.2197 130.181 12.9688C130.441 12.7131 130.643 12.3958 130.785 12.017L132.404 12.4716C132.234 13.0208 131.947 13.5038 131.545 13.9205C131.142 14.3324 130.645 14.6544 130.053 14.8864C129.461 15.1136 128.796 15.2273 128.057 15.2273ZM135.124 15V4.09091H136.743V5.73864H136.857C137.056 5.19886 137.416 4.76089 137.937 4.42472C138.458 4.08854 139.045 3.92045 139.698 3.92045C139.821 3.92045 139.975 3.92282 140.16 3.92756C140.344 3.93229 140.484 3.93939 140.579 3.94886V5.65341C140.522 5.6392 140.392 5.6179 140.188 5.58949C139.989 5.55634 139.779 5.53977 139.556 5.53977C139.026 5.53977 138.552 5.65104 138.136 5.87358C137.724 6.09138 137.397 6.39441 137.155 6.78267C136.919 7.16619 136.8 7.60417 136.8 8.09659V15H135.124ZM144.753 10.9091V10.8239C144.763 9.91951 144.857 9.19981 145.037 8.66477C145.217 8.12973 145.473 7.6965 145.804 7.36506C146.136 7.03362 146.533 6.72822 146.997 6.44886C147.277 6.27841 147.528 6.07718 147.75 5.84517C147.973 5.60843 148.148 5.33617 148.276 5.02841C148.408 4.72064 148.475 4.37973 148.475 4.00568C148.475 3.54167 148.366 3.1392 148.148 2.7983C147.93 2.45739 147.639 2.1946 147.274 2.00994C146.91 1.82528 146.505 1.73295 146.06 1.73295C145.672 1.73295 145.298 1.81345 144.938 1.97443C144.578 2.13542 144.277 2.38873 144.036 2.73438C143.794 3.08002 143.655 3.5322 143.617 4.09091H141.827C141.865 3.28598 142.073 2.59706 142.452 2.02415C142.835 1.45123 143.34 1.01326 143.965 0.710226C144.594 0.407196 145.293 0.255681 146.06 0.255681C146.893 0.255681 147.618 0.421401 148.233 0.75284C148.853 1.08428 149.332 1.53883 149.668 2.11648C150.009 2.69413 150.179 3.35227 150.179 4.09091C150.179 4.61174 150.099 5.08286 149.938 5.50426C149.781 5.92566 149.554 6.30208 149.256 6.63352C148.962 6.96496 148.607 7.25852 148.191 7.5142C147.774 7.77462 147.44 8.04924 147.189 8.33807C146.938 8.62216 146.756 8.9607 146.642 9.35369C146.529 9.74669 146.467 10.2367 146.458 10.8239V10.9091H144.753ZM145.662 15.1136C145.312 15.1136 145.011 14.9882 144.76 14.7372C144.509 14.4863 144.384 14.1856 144.384 13.8352C144.384 13.4848 144.509 13.1842 144.76 12.9332C145.011 12.6823 145.312 12.5568 145.662 12.5568C146.013 12.5568 146.313 12.6823 146.564 12.9332C146.815 13.1842 146.941 13.4848 146.941 13.8352C146.941 14.0672 146.881 14.2803 146.763 14.4744C146.649 14.6686 146.496 14.8248 146.301 14.9432C146.112 15.0568 145.899 15.1136 145.662 15.1136Z" fill="black"/>
</svg>
